<svg width="24" height="24" viewBox="0 0 24 24" fill="none" xmlns="http://www.w3.org/2000/svg">
<path fill-rule="evenodd" clip-rule="evenodd" d="M16.5242 0.849976C15.6708 0.849976 14.9868 1.0878 14.4932 1.58141L14.4907 1.5839C13.986 2.11271 13.7626 2.87547 13.6714 3.81037C13.5804 4.74418 13.6191 5.87882 13.6633 7.17427L13.6636 7.1832L13.6701 7.37591L13.6702 7.37794C13.716 8.33996 13.7617 9.43703 13.7617 10.5791C13.7617 12.077 13.4892 13.7604 13.2138 15.4128L13.1649 15.7342C12.9457 17.1748 12.7383 18.5384 12.7479 19.6918C12.7575 20.8443 12.9835 21.8256 13.6701 22.4663C14.1185 22.9134 14.8023 23.15 15.6076 23.15C16.0318 23.15 16.4565 23.1027 16.9721 22.9625C18.5559 22.6244 19.6467 21.1913 20.4741 19.3547C21.3041 17.5123 21.891 15.2136 22.4391 13.0669L22.4412 13.0586L22.4438 13.0484C22.5134 12.816 22.5713 12.5729 22.628 12.3349L22.6285 12.3324C22.686 12.091 22.7424 11.8548 22.8096 11.6306L22.8108 11.6261C23.5565 8.82977 22.9498 5.94066 21.1812 3.6135C19.8805 1.89477 18.1451 0.849976 16.5242 0.849976ZM15.402 2.42517C15.5883 2.20161 15.9441 2.06664 16.5242 2.06664C17.7447 2.06664 19.1721 2.9006 20.2555 4.30003C21.318 5.67495 21.8814 7.33232 21.915 9.03137L18.4773 6.69504V3.74993H17.2606V6.54722C17.2463 6.56588 17.233 6.58554 17.2206 6.60619L17.2101 6.6243L14.9142 7.92199C14.9052 7.7156 14.8959 7.51419 14.8866 7.31854C14.8407 6.1252 14.8069 5.06857 14.8691 4.21928C14.9321 3.36069 15.0917 2.75684 15.3963 2.43191L15.402 2.42517ZM14.9784 10.5333C14.9784 10.1075 14.9721 9.6881 14.9618 9.27992L17.7904 7.71275L21.8198 10.4512C21.7773 10.7267 21.7205 11.0016 21.6496 11.2748L21.648 11.2831C21.5575 11.7353 21.4213 12.2351 21.2834 12.7405L21.2829 12.7428C20.8011 14.6699 20.2537 16.8124 19.52 18.5414C19.1533 19.4056 18.7431 20.1589 18.2767 20.7278C17.8107 21.2961 17.2967 21.6709 16.7224 21.799C16.1589 21.9116 15.6951 21.9432 15.3272 21.9C14.9596 21.8567 14.6973 21.74 14.522 21.5647L14.5193 21.5622C14.313 21.3657 14.1703 21.0773 14.0832 20.7004C13.996 20.3236 13.9668 19.8687 13.9793 19.3521C14.0043 18.3178 14.1954 17.0654 14.3968 15.7477L14.4264 15.5538L14.4265 15.5528C14.7012 13.9046 14.9784 12.1514 14.9784 10.5333Z" fill="#1A1A1A"/>
<path fill-rule="evenodd" clip-rule="evenodd" d="M7.59906 0.849976C8.45245 0.849976 9.13652 1.0878 9.63013 1.58141L9.63256 1.5839C10.1373 2.11271 10.3607 2.87547 10.4519 3.81037C10.5429 4.74418 10.5042 5.87882 10.46 7.17427L10.4597 7.1832L10.4532 7.37591L10.4531 7.37794C10.4072 8.33996 10.3616 9.43703 10.3616 10.5791C10.3616 12.077 10.6341 13.7604 10.9095 15.4128L10.9584 15.7342C11.1776 17.1748 11.385 18.5384 11.3754 19.6918C11.3658 20.8443 11.1398 21.8256 10.4532 22.4663C10.0048 22.9134 9.32101 23.15 8.51573 23.15C8.09149 23.15 7.66682 23.1027 7.1512 22.9625C5.56738 22.6244 4.47658 21.1913 3.6492 19.3547C2.81919 17.5123 2.23229 15.2136 1.6842 13.0669L1.68209 13.0586L1.67949 13.0484C1.60989 12.816 1.55202 12.5729 1.49534 12.3349L1.49474 12.3324C1.43728 12.091 1.38091 11.8548 1.31365 11.6306L1.31246 11.6261C0.566765 8.82977 1.17346 5.94066 2.94204 3.6135C4.24275 1.89477 5.97818 0.849976 7.59906 0.849976ZM8.72133 2.42517C8.53502 2.20161 8.17918 2.06664 7.59906 2.06664C6.37863 2.06664 4.95122 2.9006 3.86775 4.30003C2.80532 5.67495 2.24193 7.33232 2.20828 9.03137L5.64603 6.69504V3.74993H6.8627V6.54722C6.87695 6.56588 6.8903 6.58554 6.90269 6.60619L6.91321 6.6243L9.20912 7.92199C9.21806 7.7156 9.22738 7.51419 9.2367 7.31854C9.28259 6.1252 9.31643 5.06857 9.25415 4.21928C9.19119 3.36069 9.03156 2.75684 8.72694 2.43191L8.72133 2.42517ZM9.14489 10.5333C9.14489 10.1075 9.1512 9.6881 9.16147 9.27992L6.33292 7.71275L2.30346 10.4512C2.34598 10.7267 2.40283 11.0016 2.47366 11.2748L2.47531 11.2831C2.56577 11.7353 2.70202 12.2351 2.83985 12.7405L2.84042 12.7428C3.32221 14.6699 3.86962 16.8124 4.60329 18.5414C4.97001 19.4056 5.3802 20.1589 5.84663 20.7278C6.31254 21.2961 6.82659 21.6709 7.40086 21.799C7.96442 21.9116 8.42817 21.9432 8.79612 21.9C9.16371 21.8567 9.42597 21.74 9.6013 21.5647L9.60395 21.5622C9.81029 21.3657 9.95296 21.0773 10.0401 20.7004C10.1273 20.3236 10.1565 19.8687 10.144 19.3521C10.119 18.3178 9.92787 17.0654 9.72653 15.7477L9.69694 15.5538L9.69677 15.5528C9.42207 13.9046 9.14489 12.1514 9.14489 10.5333Z" fill="#1A1A1A"/>
</svg>
