<svg width="24" height="24" viewBox="0 0 24 24" fill="none" xmlns="http://www.w3.org/2000/svg">
<path fill-rule="evenodd" clip-rule="evenodd" d="M4.52188 21.8818C4.71278 21.8818 4.87006 22.04 4.87006 22.2364C4.8703 22.3291 4.83381 22.4182 4.76857 22.4841C4.70332 22.5501 4.61463 22.5875 4.52188 22.5882C4.42897 22.5875 4.34013 22.5499 4.27486 22.4838C4.20959 22.4177 4.17321 22.3284 4.17369 22.2355C4.17369 22.04 4.33006 21.8827 4.52188 21.8827V21.8818ZM6.95642 21.8818C7.14824 21.8818 7.30461 22.04 7.30461 22.2364C7.30485 22.3291 7.26836 22.4182 7.20311 22.4841C7.13787 22.5501 7.04917 22.5875 6.95642 22.5882C6.86367 22.5872 6.77507 22.5496 6.71 22.4835C6.64492 22.4174 6.60866 22.3282 6.60915 22.2355C6.60915 22.04 6.7646 21.8827 6.95642 21.8827M5.91279 23.2946C6.1046 23.2946 6.26097 23.4518 6.26097 23.6473C6.26145 23.7402 6.22507 23.8295 6.1598 23.8956C6.09453 23.9618 6.0057 23.9993 5.91279 24C5.82003 23.9991 5.73144 23.9614 5.66636 23.8953C5.60129 23.8292 5.56503 23.7401 5.56551 23.6473C5.56551 23.4518 5.72097 23.2946 5.91279 23.2946ZM8.34824 23.2946C8.53915 23.2946 8.69552 23.4518 8.69552 23.6473C8.696 23.7401 8.65974 23.8292 8.59467 23.8953C8.52959 23.9614 8.44099 23.9991 8.34824 24C8.25533 23.9993 8.1665 23.9618 8.10123 23.8956C8.03596 23.8295 7.99958 23.7402 8.00006 23.6473C8.00006 23.4518 8.15642 23.2946 8.34824 23.2946ZM9.39097 21.8818C9.58279 21.8818 9.73915 22.04 9.73915 22.2364C9.7394 22.3291 9.70291 22.4182 9.63766 22.4841C9.57242 22.5501 9.48372 22.5875 9.39097 22.5882C9.29822 22.5872 9.20962 22.5496 9.14455 22.4835C9.07947 22.4174 9.04321 22.3282 9.0437 22.2355C9.0437 22.04 9.19915 21.8827 9.39097 21.8827M12.1737 21.8818C12.3655 21.8818 12.5219 22.04 12.5219 22.2364C12.5221 22.3291 12.4856 22.4182 12.4204 22.4841C12.3551 22.5501 12.2665 22.5875 12.1737 22.5882C12.0809 22.5872 11.9924 22.5496 11.9273 22.4835C11.8622 22.4174 11.8259 22.3282 11.8264 22.2355C11.8264 22.04 11.9819 21.8827 12.1737 21.8827M10.7819 23.2946C10.9746 23.2946 11.1301 23.4518 11.1301 23.6473C11.1305 23.7401 11.0943 23.8292 11.0292 23.8953C10.9641 23.9614 10.8755 23.9991 10.7828 24C10.6899 23.9993 10.601 23.9618 10.5358 23.8956C10.4705 23.8295 10.4341 23.7402 10.4346 23.6473C10.4346 23.4518 10.591 23.2946 10.7828 23.2946M12.8701 23.2946C13.061 23.2946 13.2173 23.4518 13.2173 23.6473C13.2178 23.7401 13.1816 23.8292 13.1165 23.8953C13.0514 23.9614 12.9628 23.9991 12.8701 24C12.7772 23.9993 12.6883 23.9618 12.6231 23.8956C12.5578 23.8295 12.5214 23.7402 12.5219 23.6473C12.5219 23.4518 12.6782 23.2946 12.8701 23.2946ZM14.261 21.8818C14.4528 21.8818 14.6092 22.04 14.6092 22.2364C14.6094 22.3291 14.5729 22.4182 14.5077 22.4841C14.4424 22.5501 14.3537 22.5875 14.261 22.5882C14.1681 22.5875 14.0792 22.5499 14.014 22.4838C13.9487 22.4177 13.9123 22.3284 13.9128 22.2355C13.9128 22.04 14.0692 21.8827 14.261 21.8827M16.6955 21.8818C16.8873 21.8818 17.0437 22.04 17.0437 22.2364C17.0439 22.3291 17.0075 22.4182 16.9422 22.4841C16.877 22.5501 16.7883 22.5875 16.6955 22.5882C16.6028 22.5872 16.5142 22.5496 16.4491 22.4835C16.384 22.4174 16.3478 22.3282 16.3483 22.2355C16.3483 22.04 16.5037 21.8827 16.6955 21.8827M15.3046 23.2946C15.4955 23.2946 15.6519 23.4518 15.6519 23.6473C15.6524 23.7401 15.6161 23.8292 15.551 23.8953C15.486 23.9614 15.3974 23.9991 15.3046 24C15.2117 23.9993 15.1229 23.9618 15.0576 23.8956C14.9923 23.8295 14.9559 23.7402 14.9564 23.6473C14.9564 23.4518 15.1128 23.2946 15.3046 23.2946ZM18.0873 23.2946C18.2783 23.2946 18.4346 23.4518 18.4346 23.6473C18.4351 23.7401 18.3988 23.8292 18.3338 23.8953C18.2687 23.9614 18.1801 23.9991 18.0873 24C17.9944 23.9993 17.9056 23.9618 17.8403 23.8956C17.7751 23.8295 17.7387 23.7402 17.7392 23.6473C17.7392 23.4518 17.8955 23.2946 18.0873 23.2946ZM19.1301 21.8818C19.3219 21.8818 19.4783 22.04 19.4783 22.2364C19.4785 22.3291 19.442 22.4182 19.3768 22.4841C19.3115 22.5501 19.2228 22.5875 19.1301 22.5882C19.0373 22.5872 18.9487 22.5496 18.8836 22.4835C18.8186 22.4174 18.7823 22.3282 18.7828 22.2355C18.7828 22.04 18.9383 21.8827 19.1301 21.8827M7.47824 2.05909C8.37461 2.05909 9.10188 2.79546 9.10188 3.70546C9.10188 4.61546 8.37461 5.35273 7.47824 5.35273C6.58188 5.35273 5.8546 4.61637 5.8546 3.70546C5.8546 2.79637 6.58188 2.05909 7.47824 2.05909ZM4.23278 4.11728H5.08006C5.14097 4.49182 5.28733 4.83819 5.49369 5.13455L4.89369 5.74364C4.8173 5.8212 4.77448 5.92569 4.77448 6.03455C4.77448 6.14341 4.8173 6.24791 4.89369 6.32546C4.97551 6.40728 5.07551 6.44364 5.18188 6.44364C5.28967 6.4433 5.39307 6.4009 5.47006 6.32546L6.07006 5.71546C6.36279 5.92455 6.7037 6.07364 7.07279 6.13546V6.9991C7.07279 7.22637 7.25461 7.41183 7.47824 7.41183C7.58667 7.41087 7.69029 7.367 7.76645 7.28982C7.84261 7.21264 7.88509 7.10843 7.88461 7.00001V6.1391C8.25279 6.07728 8.5937 5.93001 8.88643 5.7191L9.48643 6.32819C9.56824 6.41092 9.67006 6.44819 9.77461 6.44819C9.88299 6.4477 9.98683 6.40459 10.0637 6.32819C10.1395 6.25071 10.182 6.14661 10.182 6.03819C10.182 5.92977 10.1395 5.82566 10.0637 5.74819L9.46279 5.1391C9.67006 4.84273 9.81552 4.49637 9.87643 4.12091H10.7246C10.8327 4.11972 10.936 4.07587 11.0119 3.99891C11.0878 3.92195 11.1303 3.81812 11.1301 3.71C11.1301 3.48273 10.9482 3.29819 10.7246 3.29819H9.87643C9.81666 2.93234 9.67528 2.58465 9.46279 2.28091L10.0628 1.67182C10.1392 1.59426 10.182 1.48977 10.182 1.38091C10.182 1.27205 10.1392 1.16756 10.0628 1.09C10.0255 1.05193 9.98106 1.02168 9.93197 1.00103C9.88287 0.980381 9.83014 0.969744 9.77688 0.969744C9.72362 0.969744 9.67089 0.980381 9.6218 1.00103C9.5727 1.02168 9.52822 1.05193 9.49097 1.09L8.89097 1.7C8.59384 1.48032 8.24903 1.33392 7.88461 1.27273V0.411819C7.88461 0.184546 7.70188 0 7.47824 0C7.36998 0.00119925 7.26658 0.045174 7.19062 0.122327C7.11466 0.199481 7.0723 0.303548 7.07279 0.411819V1.27273C6.7037 1.33455 6.36279 1.48182 6.07006 1.69273L5.47006 1.08273C5.43279 1.04452 5.38826 1.01415 5.33908 0.99342C5.2899 0.972687 5.23707 0.962006 5.18369 0.962006C5.13032 0.962006 5.07749 0.972687 5.02831 0.99342C4.97913 1.01415 4.93459 1.04452 4.89733 1.08273C4.82121 1.16024 4.77856 1.26454 4.77856 1.37318C4.77856 1.48182 4.82121 1.58612 4.89733 1.66364L5.49824 2.27273C5.28318 2.57689 5.14018 2.92601 5.08006 3.29364H4.23188C4.12361 3.29484 4.02021 3.33881 3.94425 3.41597C3.86829 3.49312 3.82593 3.59719 3.82642 3.70546C3.82642 3.93273 4.00824 4.11728 4.23188 4.11728" fill="#1A1A1A"/>
<mask id="mask0_693_12303" style="mask-type:alpha" maskUnits="userSpaceOnUse" x="0" y="0" width="24" height="24">
<path d="M0 24H24V0H0V24Z" fill="black"/>
</mask>
<g mask="url(#mask0_693_12303)">
<path fill-rule="evenodd" clip-rule="evenodd" d="M22.4 23.5236H23.2V22.6945H22.4V23.5236ZM22 14.8145V10.6682H22.4V14.8145H22ZM18.8 15.6445H21.2V13.1563H18.8V15.6445ZM15.6 15.6445H18V13.1563H15.6V15.6445ZM12.4 15.6445H14.8V13.1563H12.4V15.6445ZM9.20001 15.6445H11.6V13.1563H9.20001V15.6445ZM6.00001 15.6445H8.40001V13.1563H6.00001V15.6445ZM2.8 15.6445H5.20001V13.1563H2.8V15.6445ZM1.6 14.8145V10.6682H2V14.8145H1.6ZM2.8 12.3263H5.20001V9.83816H2.8V12.3263ZM6.00001 12.3263H8.40001V9.83816H6.00001V12.3263ZM9.20001 12.3263H11.6V9.83816H9.20001V12.3263ZM12.4 12.3263H14.8V9.83816H12.4V12.3263ZM15.6 12.3263H18V9.83816H15.6V12.3263ZM18.8 12.3263H21.2V9.83816H18.8V12.3263ZM0.800001 23.5236H1.6V22.6945H0.800001V23.5236ZM23.2 21.8645V7.76453H22.4V9.83816H22V9.00907H2V9.83816H1.6V7.76543H0.800001V21.8654H0V24.3527H2.4V21.8645H1.6V15.6454H2V16.4745H22V15.6454H22.4V21.8654H21.6V24.3536H24V21.8654H23.2V21.8645Z" fill="#1A1A1A"/>
</g>
</svg>
