<svg width="24" height="24" viewBox="0 0 24 24" fill="none" xmlns="http://www.w3.org/2000/svg">
<path fill-rule="evenodd" clip-rule="evenodd" d="M1.27088 11.9084L1 11.9787L1.00013 11.3821C1.00025 11.2395 1.00041 11.0823 1.00108 11.0429C1.04671 6.68449 5.35269 3.18339 10.679 2.90789V1H12.039V2.90791C17.393 3.18534 21.7175 6.72179 21.7175 11.1122V11.9796L20.8613 11.7545C20.3705 11.6259 19.4344 11.3945 18.5021 11.1954C17.5604 10.9942 16.6511 10.8326 16.198 10.8326C15.791 10.8326 15.0134 10.9633 14.1707 11.1373C13.4102 11.2944 12.6169 11.4823 12.039 11.6262V19.4642L13.3447 20.5567L13.5938 20.3927C13.8257 20.24 14.1367 20.0355 14.4528 19.8284C14.7689 19.6213 15.0905 19.4113 15.3436 19.2477C15.5888 19.0891 15.786 18.9633 15.8398 18.9356C15.9287 18.8899 16.0205 18.8543 16.1255 18.8435C16.2307 18.8327 16.3317 18.8485 16.4371 18.8791L16.4479 18.8822L21.4892 20.9237L21.1837 21.6695H23V23H1.00003V21.6695H6.17909L8.68422 18.4087L5.91186 16.0892L6.79786 15.0797L10.6779 18.3264V11.6262C10.1003 11.4821 9.30707 11.2942 8.54654 11.1372C7.7039 10.9632 6.92624 10.8326 6.51952 10.8326C6.06345 10.8326 5.15863 10.993 4.2217 11.1931C3.2955 11.3909 2.36553 11.6212 1.87106 11.7508C1.8353 11.761 1.68797 11.7996 1.55399 11.8346L1.27088 11.9084ZM2.43407 10.229C2.83263 7.86038 4.81875 5.84009 7.58725 4.85687C6.61533 6.05752 5.97722 7.7112 5.8598 9.55097L2.43407 10.229ZM11.3585 4.21966C12.1395 4.21966 12.9107 4.8039 13.5106 5.84563C14.0824 6.83851 14.469 8.20274 14.5352 9.70901C13.2865 9.93916 11.8544 10.297 11.3585 10.4241C10.7328 10.2639 8.58785 9.72841 7.22658 9.55657C7.33337 8.07383 7.8228 6.7565 8.54379 5.80248C9.29678 4.80612 10.2894 4.21966 11.3585 4.21966ZM15.8922 9.51501C16.002 9.5068 16.1046 9.50218 16.1975 9.50218C16.7088 9.50218 17.5398 9.63985 18.3638 9.80628C19.052 9.94526 19.7505 10.1076 20.2837 10.2368C19.8515 7.64313 17.5143 5.46564 14.3333 4.60915C15.2154 5.81059 15.7881 7.54601 15.8922 9.51501ZM9.72065 19.2754L10.6785 20.0768V21.6696H7.88105L9.72065 19.2754ZM12.5075 21.6695L12.039 21.2051V21.6695L12.5075 21.6695ZM16.2738 20.2487L19.7776 21.6696H14.0269L16.2738 20.2487Z" fill="#1A1A1A"/>
</svg>
