<svg width="20" height="21" viewBox="0 0 20 21" fill="none" xmlns="http://www.w3.org/2000/svg">
<path fill-rule="evenodd" clip-rule="evenodd" d="M10 20.5C15.5228 20.5 20 16.0228 20 10.5C20 4.97715 15.5228 0.5 10 0.5C4.47716 0.5 0 4.97715 0 10.5C0 16.0228 4.47716 20.5 10 20.5ZM10 19.7135C15.0885 19.7135 19.2135 15.5885 19.2135 10.5C19.2135 5.41153 15.0885 1.28652 10 1.28652C4.91153 1.28652 0.786517 5.41153 0.786517 10.5C0.786517 15.5885 4.91153 19.7135 10 19.7135Z" fill="#1A1A1A"/>
<path fill-rule="evenodd" clip-rule="evenodd" d="M1.83789 12.6056C2.65247 12.8817 4.10449 13.1966 6.12325 13.1966C9.49403 13.1966 12.7525 12.2977 14.494 11.1179C15.1202 11.6398 16.522 12.5494 18.0239 13.0813C17.8426 13.6453 17.6035 14.1833 17.3136 14.6885C16.727 14.4435 15.7472 13.9532 14.3817 13.0842C13.9322 13.3089 10.8423 14.8258 6.29179 14.8258C4.71201 14.8258 3.42775 14.5648 2.43259 14.2128C2.1824 13.7038 1.98205 13.166 1.83789 12.6056ZM4.3764 16.7764C3.82923 16.2859 3.34657 15.7248 2.94272 15.1075C3.90572 15.2975 5.17112 15.4631 6.57269 15.4999C8.70752 15.5561 12.4154 14.9943 14.157 13.8145C14.6767 14.2477 15.6639 14.9145 16.8355 15.429C16.521 15.8644 16.166 16.2685 15.7759 16.6358C15.2467 16.3545 14.6253 15.9972 13.9322 15.5561L13.916 15.5643C13.432 15.8066 11.2393 16.9044 6.74123 16.9044C5.8969 16.9044 5.1044 16.8573 4.3764 16.7764ZM15.2972 17.0539C13.8498 18.2253 12.0067 18.9269 9.99965 18.9269C8.24471 18.9269 6.61507 18.3905 5.26576 17.4726C5.81012 17.5041 6.36566 17.5224 6.90977 17.5224C9.49403 17.5224 11.8536 17.073 13.8199 16.1179C14.1356 16.381 14.6607 16.718 15.2972 17.0539Z" fill="#1A1A1A"/>
</svg>
