<svg width="24" height="24" viewBox="0 0 24 24" fill="none" xmlns="http://www.w3.org/2000/svg">
<path fill-rule="evenodd" clip-rule="evenodd" d="M3.94791 13.2895H17.5022C17.3604 9.77748 14.3741 6.9586 10.7251 6.9586C7.07607 6.9586 4.09053 9.77748 3.94791 13.2895ZM18.4509 14.2141H3V13.5667C3 9.40809 6.4599 6.03473 10.7251 6.03473C14.9902 6.03473 18.4501 9.40809 18.4501 13.5667V14.2141H18.4509Z" fill="#1A1A1A"/>
<path fill-rule="evenodd" clip-rule="evenodd" d="M3.9455 16.3342H17.5054V15.4255H3.9447L3.9455 16.3342ZM3 17.2428H18.4501V14.5169H3V17.2428ZM11.2074 6.33671H10.2707C10.2707 6.24377 10.3172 3.52825 12.7058 1.9834C15.2811 0.251047 18.032 1.00113 21.5968 2.73253L21.2218 3.62194C18.0785 1.98349 15.5159 1.23421 13.221 2.73259C11.2539 4.04347 11.2074 6.33671 11.2074 6.33671ZM7.0897 19.0609C7.19126 19.0576 7.29245 19.0748 7.38725 19.1114C7.48205 19.1479 7.56853 19.2032 7.64154 19.2739C7.71456 19.3446 7.77261 19.4292 7.81226 19.5228C7.85191 19.6163 7.87234 19.7169 7.87234 19.8185C7.87234 19.9201 7.85191 20.0207 7.81226 20.1143C7.77261 20.2078 7.71456 20.2925 7.64154 20.3632C7.56853 20.4338 7.48205 20.4891 7.38725 20.5257C7.29245 20.5623 7.19126 20.5794 7.0897 20.5761C6.89303 20.5697 6.70656 20.4871 6.56971 20.3457C6.43285 20.2044 6.35633 20.0153 6.35633 19.8185C6.35633 19.6218 6.43285 19.4327 6.56971 19.2913C6.70656 19.1499 6.89303 19.0673 7.0897 19.0609ZM10.4222 19.0609C10.5238 19.0576 10.6249 19.0748 10.7197 19.1114C10.8145 19.1479 10.901 19.2032 10.974 19.2739C11.047 19.3446 11.1051 19.4292 11.1448 19.5228C11.1844 19.6163 11.2048 19.7169 11.2048 19.8185C11.2048 19.9201 11.1844 20.0207 11.1448 20.1143C11.1051 20.2078 11.047 20.2925 10.974 20.3632C10.901 20.4338 10.8145 20.4891 10.7197 20.5257C10.6249 20.5623 10.5238 20.5794 10.4222 20.5761C10.2255 20.5697 10.0391 20.4871 9.9022 20.3457C9.76534 20.2044 9.68883 20.0153 9.68883 19.8185C9.68883 19.6218 9.76534 19.4327 9.9022 19.2913C10.0391 19.1499 10.2255 19.0673 10.4222 19.0609ZM14.6633 19.0609C14.7649 19.0576 14.8661 19.0748 14.9609 19.1114C15.0557 19.1479 15.1422 19.2032 15.2152 19.2739C15.2882 19.3446 15.3462 19.4292 15.3859 19.5228C15.4255 19.6163 15.446 19.7169 15.446 19.8185C15.446 19.9201 15.4255 20.0207 15.3859 20.1143C15.3462 20.2078 15.2882 20.2925 15.2152 20.3632C15.1422 20.4338 15.0557 20.4891 14.9609 20.5257C14.8661 20.5623 14.7649 20.5794 14.6633 20.5761C14.4667 20.5697 14.2802 20.4871 14.1433 20.3457C14.0065 20.2044 13.93 20.0153 13.93 19.8185C13.93 19.6218 14.0065 19.4327 14.1433 19.2913C14.2802 19.1499 14.4667 19.0673 14.6633 19.0609ZM8.90778 21.4848C9.01015 21.4801 9.1124 21.4963 9.20836 21.5322C9.30431 21.5682 9.39197 21.6233 9.46604 21.6941C9.54011 21.7649 9.59905 21.85 9.63931 21.9443C9.67956 22.0385 9.70028 22.1399 9.70023 22.2424C9.70017 22.3449 9.67934 22.4463 9.63899 22.5405C9.59864 22.6347 9.53961 22.7197 9.46546 22.7904C9.39132 22.8612 9.3036 22.9161 9.20761 22.952C9.11162 22.9879 9.00935 23.0039 8.90698 22.9992C8.71219 22.9902 8.52834 22.9065 8.39366 22.7655C8.25897 22.6245 8.18382 22.437 8.18382 22.242C8.18382 22.047 8.25897 21.8595 8.39366 21.7185C8.52834 21.5774 8.71299 21.4937 8.90778 21.4848ZM12.5432 21.4848C12.6455 21.4801 12.7478 21.4963 12.8437 21.5322C12.9397 21.5682 13.0273 21.6233 13.1014 21.6941C13.1755 21.7649 13.2344 21.85 13.2747 21.9443C13.3149 22.0385 13.3357 22.1399 13.3356 22.2424C13.3355 22.3449 13.3147 22.4463 13.2744 22.5405C13.234 22.6347 13.175 22.7197 13.1008 22.7904C13.0267 22.8612 12.939 22.9161 12.843 22.952C12.747 22.9879 12.6447 23.0039 12.5424 22.9992C12.3476 22.9902 12.1637 22.9065 12.029 22.7655C11.8943 22.6245 11.8192 22.437 11.8192 22.242C11.8192 22.047 11.8943 21.8595 12.029 21.7185C12.1637 21.5774 12.3484 21.4937 12.5432 21.4848Z" fill="#1A1A1A"/>
</svg>
