<svg width="24" height="24" viewBox="0 0 24 24" fill="none" xmlns="http://www.w3.org/2000/svg">
<path fill-rule="evenodd" clip-rule="evenodd" d="M3 0.411061C3 0.183274 3.18527 0 3.41239 0H21.2465C21.4736 0 21.6589 0.183274 21.6589 0.411061V21.5169C21.6589 21.5258 21.6579 21.5336 21.6568 21.5397V23.5367C21.6568 23.7644 21.4715 23.9477 21.2444 23.9477C21.0173 23.9477 20.832 23.7644 20.832 23.5367V21.928H3.82478V23.589C3.82478 23.8167 3.63951 24 3.41239 24C3.18527 24 3 23.8167 3 23.589V0.411061ZM3.82478 0.822122V16.6807H20.8341V0.822122H3.82478ZM3.82478 17.5028V21.1061H20.8341V17.5028H3.82478ZM7.72196 19.4262C7.72196 19.1984 7.90723 19.0152 8.13435 19.0152H16.9007C17.1278 19.0152 17.3131 19.1984 17.3131 19.4262C17.3131 19.654 17.1278 19.8373 16.9007 19.8373H8.13435C7.90723 19.8373 7.72196 19.654 7.72196 19.4262ZM5.36022 14.6654C5.32082 14.5062 5.41843 14.3451 5.57871 14.3059C6.93977 13.9725 8.33308 13.7392 9.72339 13.6049C9.67683 13.3568 9.63534 13.1125 9.59922 12.8724C9.46819 12.9604 9.29925 13.0314 9.06405 13.0314C8.66678 13.0314 8.45635 12.8302 8.30293 12.6831C8.1707 12.5568 8.10593 12.501 7.9552 12.501C7.80417 12.501 7.7394 12.5568 7.60717 12.6834L7.6069 12.6837C7.45321 12.8305 7.2428 13.0314 6.84546 13.0314C6.44841 13.0314 6.238 12.8305 6.0843 12.6837L6.08403 12.6834C5.95181 12.5568 5.88704 12.501 5.73601 12.501C5.57125 12.501 5.43753 12.3682 5.43753 12.2038C5.43753 12.0395 5.57125 11.9067 5.73601 11.9067C6.13358 11.9067 6.34401 12.1078 6.49773 12.2549C6.62995 12.3812 6.69502 12.4371 6.84575 12.4371C6.99678 12.4371 7.06185 12.3812 7.19408 12.2546C7.3475 12.1078 7.55822 11.9067 7.9555 11.9067C8.35277 11.9067 8.5632 12.1078 8.71662 12.2549C8.84885 12.3812 8.91362 12.4371 9.06435 12.4371C9.21538 12.4371 9.28045 12.3812 9.41267 12.2546C9.43445 12.2336 9.45729 12.2138 9.48011 12.194C9.4892 12.1861 9.49828 12.1782 9.50729 12.1702C8.76289 5.52711 12.0193 2.12976 12.1799 1.96752C12.1802 1.96722 12.1805 1.96707 12.1808 1.96692C12.1811 1.96678 12.1814 1.96663 12.1817 1.96633C12.1823 1.96544 12.1826 1.96455 12.1832 1.96395C12.1933 1.95385 12.2053 1.94718 12.2174 1.94047C12.2227 1.93751 12.2281 1.93454 12.2333 1.93127C12.2385 1.92784 12.2435 1.92409 12.2485 1.92036C12.2587 1.91276 12.2688 1.90524 12.2802 1.90066C12.2925 1.89574 12.3054 1.89393 12.3184 1.89211C12.3243 1.89129 12.3301 1.89047 12.336 1.88937C12.3423 1.88819 12.3485 1.88665 12.3547 1.88512C12.3672 1.88203 12.3796 1.87897 12.3924 1.87897C12.4069 1.87897 12.4209 1.88245 12.4351 1.88596C12.4407 1.88737 12.4464 1.88877 12.4521 1.88996C12.4581 1.89117 12.464 1.89197 12.47 1.89276C12.4815 1.89431 12.493 1.89584 12.504 1.90036C12.5234 1.90829 12.5407 1.92137 12.5581 1.93445C12.5615 1.93707 12.565 1.93968 12.5685 1.94226C12.5729 1.94558 12.5777 1.94819 12.5824 1.95078C12.5891 1.95445 12.5957 1.95808 12.6013 1.96366C12.6015 1.964 12.6017 1.96434 12.6018 1.96462C12.602 1.96483 12.6021 1.96502 12.6022 1.96514C12.6027 1.96554 12.6033 1.96581 12.6038 1.96608C12.6044 1.96641 12.605 1.96672 12.6055 1.96722C12.7676 2.13155 16.0506 5.56158 15.2587 12.1509C15.2984 12.1845 15.3378 12.2184 15.3751 12.254C15.5076 12.3806 15.5724 12.4365 15.7234 12.4365C15.8747 12.4365 15.9395 12.3806 16.072 12.254C16.2258 12.1073 16.4365 11.9061 16.8341 11.9061C17.2316 11.9061 17.4424 12.1073 17.5961 12.254C17.7286 12.3806 17.7937 12.4365 17.9453 12.4365C18.0966 12.4365 18.1617 12.3806 18.2942 12.254C18.4479 12.1073 18.6587 11.9061 19.0565 11.9061C19.2213 11.9061 19.355 12.0389 19.355 12.2032C19.355 12.3676 19.2213 12.5004 19.0565 12.5004C18.9049 12.5004 18.8398 12.5563 18.7073 12.6828L18.707 12.6831C18.5534 12.8299 18.3429 13.0308 17.9453 13.0308C17.5481 13.0308 17.3377 12.8303 17.1837 12.6835L17.183 12.6828C17.0505 12.5563 16.9854 12.5004 16.8341 12.5004C16.6827 12.5004 16.618 12.5563 16.4854 12.6828L16.4852 12.6831C16.3315 12.8299 16.1211 13.0308 15.7234 13.0308C15.4715 13.0308 15.2951 12.95 15.1602 12.8534C15.1223 13.0923 15.0784 13.3351 15.0295 13.5817C17.5089 13.8093 18.9992 14.2907 19.0637 14.3121C19.2201 14.3635 19.3049 14.5317 19.2532 14.6874C19.212 14.8122 19.095 14.8916 18.97 14.8916C18.9389 14.8916 18.9076 14.8865 18.8766 14.8764L18.8753 14.876C18.8248 14.86 17.3247 14.3832 14.9044 14.1674C14.8032 14.6078 14.6883 15.0571 14.5498 15.5209C14.5247 15.6053 14.4629 15.6743 14.3818 15.709C14.3438 15.7254 14.3036 15.7334 14.2636 15.7334C14.217 15.7334 14.171 15.7227 14.1286 15.7016L12.3906 14.8262L10.5914 15.7034C10.5499 15.7236 10.5051 15.7337 10.46 15.7337C10.4185 15.7337 10.3771 15.7251 10.3383 15.7079C10.2577 15.6719 10.1971 15.6018 10.1729 15.5171C10.0443 15.0618 9.9377 14.6212 9.84338 14.1891C8.46023 14.3201 7.07469 14.5516 5.72138 14.883C5.6975 14.8889 5.67333 14.8916 5.64975 14.8916C5.51573 14.8916 5.39365 14.8009 5.36022 14.6654ZM12.6915 14.3112L14.0767 15.0092C15.881 8.57797 13.7385 4.52036 12.6915 3.02895V14.3112ZM12.0945 14.3086V3.0334C11.0561 4.52303 8.93988 8.56104 10.6529 15.0113L12.0945 14.3086Z" fill="#1A1A1A"/>
</svg>
