<svg width="24" height="24" viewBox="0 0 24 24" fill="none" xmlns="http://www.w3.org/2000/svg">
<path fill-rule="evenodd" clip-rule="evenodd" d="M8.60793 0.788266C8.32019 0.754974 8.08241 0.745819 7.90441 0.751631L7.90288 0.751685L7.87636 0.752744L7.85997 0.753633C7.46583 0.778635 7.21849 1.18117 7.356 1.54402L10.4111 9.6057L6.4712 10.672L6.28857 9.80702C7.1783 9.5121 7.81789 8.66452 7.81789 7.6684C7.81789 6.42939 6.82727 5.41862 5.59752 5.41862C4.36777 5.41862 3.37715 6.42939 3.37715 7.6684C3.37715 8.74175 4.11997 9.64303 5.11821 9.86558L6.01699 14.1225C6.05682 14.3111 6.18704 14.4692 6.3667 14.5421L9.4207 15.7819L10.3279 18.0839H5.92591C5.603 18.0839 5.34752 18.3485 5.34752 18.6672C5.34752 18.9858 5.603 19.2505 5.92591 19.2505H11.1702C11.177 19.2506 11.1837 19.2506 11.1904 19.2505H14.4541C14.4608 19.2506 14.4676 19.2506 14.4744 19.2505H17.9119C18.3403 19.2505 18.862 19.0308 19.1653 18.723L19.8004 18.0784C20.0245 17.8509 20.0245 17.4836 19.8004 17.2561C19.5742 17.0266 19.206 17.0266 18.9798 17.2561L18.3447 17.9007C18.3093 17.9366 18.2357 17.9852 18.1402 18.0255C18.0444 18.0658 17.9596 18.0839 17.9119 18.0839H14.8623L13.832 15.365L18.6091 13.5469C18.9193 13.4288 19.0649 13.0753 18.937 12.7726L16.9667 8.10642L16.9645 8.10152C16.0998 6.17058 15.0539 4.63837 13.8577 3.4657C12.6373 2.26926 11.3207 1.501 9.98647 1.08527C9.49953 0.933554 9.03689 0.837896 8.60793 0.788266ZM13.419 14.2753L8.76257 1.9878C9.04014 2.03412 9.33547 2.10344 9.64498 2.19988C10.8026 2.56057 11.9605 3.23275 13.0514 4.3022C14.1344 5.36386 15.0992 6.77112 15.9063 8.57263L17.6365 12.6701L13.419 14.2753ZM4.53394 7.6684C4.53394 7.06667 5.0136 6.58521 5.59752 6.58521C6.18144 6.58521 6.6611 7.06667 6.6611 7.6684C6.6611 8.27013 6.18144 8.75158 5.59752 8.75158C5.0136 8.75158 4.53394 8.27013 4.53394 7.6684ZM7.0843 13.5759L6.71244 11.8146L10.8262 10.7012L13.6239 18.0839H11.5727L10.4041 15.1187C10.346 14.9712 10.2303 14.853 10.0826 14.7931L7.0843 13.5759ZM3.95555 20.7502C3.59798 20.7502 3.30722 20.8073 3.0277 20.9513C2.7553 21.0916 2.51028 21.3062 2.23168 21.589C2.01444 21.8095 1.87615 21.9275 1.75096 21.995C1.63682 22.0566 1.5197 22.0834 1.32839 22.0834C1.00548 22.0834 0.75 22.3481 0.75 22.6667C0.75 22.9853 1.00548 23.25 1.32839 23.25C1.68597 23.25 1.97672 23.1929 2.25624 23.049C2.52864 22.9087 2.77366 22.694 3.05226 22.4112C3.2695 22.1908 3.40779 22.0727 3.53299 22.0052C3.64712 21.9436 3.76425 21.9168 3.95555 21.9168C4.14685 21.9168 4.26398 21.9436 4.37811 22.0052C4.50331 22.0727 4.64159 22.1908 4.85884 22.4112C5.13743 22.694 5.38246 22.9087 5.65486 23.049C5.93437 23.1929 6.22513 23.25 6.5827 23.25C6.94028 23.25 7.23103 23.1929 7.51055 23.049C7.78295 22.9087 8.02797 22.694 8.30657 22.4112C8.52381 22.1908 8.6621 22.0727 8.7873 22.0052C8.90143 21.9436 9.01855 21.9168 9.20986 21.9168C9.40116 21.9168 9.51829 21.9436 9.63242 22.0052C9.75762 22.0727 9.8959 22.1908 10.1131 22.4112C10.3917 22.694 10.6368 22.9087 10.9092 23.049C11.1887 23.1929 11.4794 23.25 11.837 23.25C12.1946 23.25 12.4853 23.1929 12.7649 23.049C13.0373 22.9087 13.2823 22.694 13.5609 22.4112C13.7781 22.1908 13.9164 22.0727 14.0416 22.0052C14.1557 21.9436 14.2729 21.9168 14.4642 21.9168C14.6555 21.9168 14.7726 21.9436 14.8867 22.0052C15.0119 22.0727 15.1502 22.1908 15.3675 22.4112C15.6461 22.694 15.8911 22.9087 16.1635 23.049C16.443 23.1929 16.7338 23.25 17.0913 23.25C17.4489 23.25 17.7397 23.1929 18.0192 23.049C18.2916 22.9087 18.5366 22.694 18.8152 22.4112C19.0324 22.1908 19.1707 22.0727 19.2959 22.0052C19.41 21.9436 19.5272 21.9168 19.7185 21.9168C19.9098 21.9168 20.0269 21.9436 20.141 22.0052C20.2662 22.0727 20.4045 22.1908 20.6218 22.4112C20.9004 22.694 21.1454 22.9087 21.4178 23.049C21.6973 23.1929 21.9881 23.25 22.3456 23.25C22.6685 23.25 22.924 22.9853 22.924 22.6667C22.924 22.3481 22.6686 22.0834 22.3456 22.0834C22.1543 22.0834 22.0372 22.0566 21.9231 21.995C21.7979 21.9275 21.6596 21.8095 21.4423 21.589C21.1637 21.3062 20.9187 21.0916 20.6463 20.9513C20.3668 20.8073 20.076 20.7502 19.7185 20.7502C19.3609 20.7502 19.0701 20.8073 18.7906 20.9513C18.5182 21.0916 18.2732 21.3062 17.9946 21.589C17.7774 21.8095 17.6391 21.9275 17.5139 21.995C17.3998 22.0566 17.2826 22.0834 17.0913 22.0834C16.9 22.0834 16.7829 22.0566 16.6688 21.995C16.5436 21.9275 16.4053 21.8095 16.188 21.589C15.9094 21.3062 15.6644 21.0916 15.392 20.9513C15.1125 20.8073 14.8217 20.7502 14.4642 20.7502C14.1066 20.7502 13.8158 20.8073 13.5363 20.9513C13.2639 21.0916 13.0189 21.3062 12.7403 21.589C12.5231 21.8095 12.3848 21.9275 12.2596 21.995C12.1454 22.0566 12.0283 22.0834 11.837 22.0834C11.6457 22.0834 11.5286 22.0566 11.4145 21.995C11.2893 21.9275 11.151 21.8095 10.9337 21.589C10.6551 21.3062 10.4101 21.0916 10.1377 20.9513C9.85819 20.8073 9.56743 20.7502 9.20986 20.7502C8.85229 20.7502 8.56153 20.8073 8.28201 20.9513C8.00961 21.0916 7.76459 21.3062 7.48599 21.589C7.26875 21.8095 7.13046 21.9275 7.00527 21.995C6.89113 22.0566 6.77401 22.0834 6.5827 22.0834C6.3914 22.0834 6.27427 22.0566 6.16014 21.995C6.03495 21.9275 5.89666 21.8095 5.67942 21.589C5.40082 21.3062 5.1558 21.0916 4.88339 20.9513C4.60388 20.8073 4.31312 20.7502 3.95555 20.7502Z" fill="#1A1A1A"/>
</svg>
