<svg width="24" height="24" viewBox="0 0 24 24" fill="none" xmlns="http://www.w3.org/2000/svg">
<path fill-rule="evenodd" clip-rule="evenodd" d="M2.19143 1.19994C1.36898 1.19994 0.700001 1.86894 0.700001 2.6915V5.55322C0.700001 5.7605 0.848326 5.9332 1.04482 5.97068V16.2212C1.04482 19.4628 3.65819 22.1022 6.87341 22.1022H11.2862C11.3939 22.8893 12.0657 23.4999 12.8834 23.4999H12.9315C13.7492 23.4999 14.4209 22.8893 14.5287 22.1022H14.6916C15.4442 22.1022 16.0563 21.4902 16.0563 20.7376C16.0563 19.985 15.4442 19.3729 14.6916 19.3729H14.5491V19.3231C14.5491 18.431 13.8235 17.7053 12.9315 17.7053H12.8834C11.9914 17.7053 11.2657 18.431 11.2657 19.3231V19.5061H6.8377C5.03327 19.5061 3.56228 18.022 3.56228 16.1947V13.8008C4.55771 15.5608 6.44704 16.752 8.61016 16.752H17.2047C20.4004 16.752 23 14.1523 23 10.9568V10.5999C23 7.40437 20.4004 4.80475 17.2047 4.80475H8.61016C6.44704 4.80475 4.55771 5.99594 3.56228 7.75596V5.97822H3.66714C3.90203 5.97822 4.09214 5.78789 4.09214 5.55322V2.6915C4.09214 1.86892 3.42314 1.19994 2.60044 1.19994H2.19143ZM1.55 2.6915C1.55 2.3378 1.83789 2.04994 2.19143 2.04994H2.60044C2.95428 2.04994 3.24214 2.33783 3.24214 2.6915V5.12822H1.55V2.6915ZM3.66487 10.5999C3.66487 7.87326 5.88338 5.65475 8.61016 5.65475H17.2047C19.9315 5.65475 22.15 7.87326 22.15 10.5999V10.9568C22.15 13.6835 19.9315 15.902 17.2047 15.902H8.61016C5.88338 15.902 3.66487 13.6835 3.66487 10.9568V10.5999ZM1.89482 16.2212V5.97822H2.71228V16.1947C2.71228 18.4882 4.56164 20.3561 6.8377 20.3561H11.2657V21.2522H6.87341C4.12981 21.2522 1.89482 18.9966 1.89482 16.2212ZM12.1157 19.3231C12.1157 18.8998 12.4603 18.5553 12.8834 18.5553H12.9315C13.3546 18.5553 13.6991 18.8998 13.6991 19.3231V21.8822C13.6991 22.3054 13.3546 22.6499 12.9315 22.6499H12.8834C12.4603 22.6499 12.1157 22.3054 12.1157 21.8822V19.3231ZM14.5491 21.2522V20.2229H14.6916C14.9753 20.2229 15.2063 20.454 15.2063 20.7376C15.2063 21.0212 14.9753 21.2522 14.6916 21.2522H14.5491ZM9.35592 6.18651C6.66736 6.18651 4.4261 8.25953 4.37519 10.8251C4.35262 11.9652 4.76976 13.0058 5.5782 13.8304C6.54075 14.8122 7.96245 15.3699 9.47543 15.3699H10.3952C11.03 15.3699 11.5566 14.8732 11.5566 14.2493C11.5566 14.1652 11.6379 14.0708 11.7708 14.0708H14.0441C14.177 14.0708 14.2582 14.1652 14.2582 14.2493C14.2582 14.8732 14.7849 15.3699 15.4196 15.3699H16.4589C19.2304 15.3699 21.3902 13.5075 21.4397 11.0064C21.4633 9.80482 20.9891 8.64905 20.1093 7.75179C19.1333 6.75624 17.7594 6.18651 16.3394 6.18651H9.35592ZM5.22513 10.8421C5.26658 8.75254 7.112 7.03651 9.35592 7.03651H16.3394C17.5339 7.03651 18.6871 7.51504 19.5025 8.34678C20.2249 9.08367 20.609 10.0223 20.5897 10.9896C20.5498 13.0208 18.8348 14.5199 16.4589 14.5199H15.4196C15.2347 14.5199 15.1082 14.3856 15.1082 14.2493C15.1082 13.6765 14.6253 13.2208 14.0441 13.2208H11.7708C11.1895 13.2208 10.7066 13.6765 10.7066 14.2493C10.7066 14.3856 10.5801 14.5199 10.3952 14.5199H9.47543C8.17954 14.5199 6.9817 14.0478 6.18505 13.2353C5.53786 12.5752 5.20714 11.749 5.22513 10.8421ZM7.92135 11.471C7.75535 11.305 7.48635 11.305 7.32035 11.471C7.15435 11.637 7.15435 11.906 7.32035 12.072L8.17973 12.9314C8.26268 13.0144 8.37168 13.0559 8.48023 13.0559C8.58877 13.0559 8.69777 13.0144 8.78073 12.9314C8.94673 12.7654 8.94673 12.4964 8.78073 12.3304L7.92135 11.471ZM8.35104 10.182C8.18504 10.016 7.91604 10.016 7.75004 10.182C7.58404 10.348 7.58404 10.617 7.75004 10.783L9.46879 12.5017C9.55174 12.5847 9.66074 12.6262 9.76929 12.6262C9.87784 12.6262 9.98684 12.5847 10.0698 12.5017C10.2358 12.3357 10.2358 12.0667 10.0698 11.9007L8.35104 10.182Z" fill="#1A1A1A"/>
</svg>
