<svg width="24" height="24" viewBox="0 0 24 24" fill="none" xmlns="http://www.w3.org/2000/svg">
<path fill-rule="evenodd" clip-rule="evenodd" d="M12.8156 2.49445C13.5602 2.49445 14.1673 3.09201 14.1673 3.82573C14.1673 4.56055 13.5602 5.15867 12.8156 5.15867C12.0698 5.15867 11.4633 4.56055 11.4633 3.82573C11.4633 3.09201 12.0698 2.49445 12.8156 2.49445ZM12.8156 6.65312C14.3972 6.65312 15.684 5.38523 15.684 3.82628C15.684 2.26789 14.3972 1 12.8156 1C11.2339 1 9.94653 2.26789 9.94653 3.82628C9.94653 5.38523 11.2339 6.65312 12.8156 6.65312Z" fill="#1A1A1A"/>
<path fill-rule="evenodd" clip-rule="evenodd" d="M15.0277 14.2069V15.375H12.6817C11.5197 15.375 10.5518 14.3562 10.5518 13.2107V11.832V11.8271V10.9208C10.5518 9.77642 11.5197 8.7599 12.6817 8.7599H12.9497C14.1123 8.7599 15.0277 9.77642 15.0277 10.9214V14.2069ZM15.0277 19.0149C15.0277 19.0711 14.9102 19.1406 14.8626 19.2222C14.048 20.6306 12.5279 21.506 10.8847 21.506C8.35638 21.506 6.21189 19.4796 6.21189 16.9885C6.21189 15.1704 7.1949 13.5575 8.87334 12.8513V13.2113C8.87334 15.1804 10.6827 17.0287 12.6817 17.0287H15.0277V19.0149ZM19.0677 13.7212H16.7061V10.9214C16.7061 8.95174 14.9488 7.10614 12.9503 7.10614H12.6823C10.6827 7.10614 8.87334 8.95174 8.87334 10.9214V11.2554C6.63541 12.0344 4.69849 14.3518 4.69849 16.9874C4.69849 20.3026 7.46625 22.9999 10.8315 22.9999C12.3992 22.9999 13.9087 22.3946 15.0277 21.3654V22.9999L16.6422 22.9999L16.7061 14.8237H18.3845V22.9999H20.063V14.2074C20.063 13.7951 19.4867 13.7212 19.0677 13.7212Z" fill="#1A1A1A"/>
</svg>
