<svg width="24" height="24" viewBox="0 0 24 24" fill="none" xmlns="http://www.w3.org/2000/svg">
<path d="M6.35527 8.52045L5.48047 8.95996L7.54596 13.233L7.32726 16.4072L7.05996 19.5815L6.79266 22.5116C6.79266 22.6581 6.81696 22.7557 6.91416 22.8534C7.01136 22.9511 7.13286 22.9999 7.25436 22.9999H14.7387C14.8845 22.9999 15.006 22.9511 15.1032 22.8534C15.2004 22.7557 15.249 22.6337 15.2247 22.4872L14.9817 19.5571L14.7387 16.3828L14.4714 12.94C14.4471 12.6958 14.2527 12.4761 13.9854 12.4761H8.25066L6.35527 8.52045ZM14.0583 20.0698L14.2284 22.0232H7.78896L7.95906 20.0698H14.0583ZM13.9611 19.0931H8.03196L8.20206 16.8956H13.8153L13.9611 19.0931ZM8.44506 13.5016C8.46936 13.4772 8.46936 13.4772 8.44506 13.5016L13.548 13.4772L13.7424 15.9189H8.27496L8.44506 13.5016Z" fill="#1A1A1A"/>
<path fill-rule="evenodd" clip-rule="evenodd" d="M12.1143 5.41962H11.0937C10.7535 5.41962 10.4862 5.63937 10.4862 5.9568V10.3031C10.4862 10.4007 10.5105 10.4984 10.5348 10.5961C10.5834 11.1089 10.9965 11.5239 11.5068 11.5239H14.6658L16.1481 13.6727C16.3425 13.9657 16.6584 13.868 16.9743 13.868C17.1444 13.868 17.3388 13.868 17.4846 13.7703C17.9463 13.4773 18.0921 12.9401 17.8005 12.4762L16.0266 9.7659C15.8565 9.47289 15.5406 9.57056 15.2004 9.57056H12.6732V5.9568C12.6732 5.63937 12.4302 5.41962 12.1143 5.41962Z" fill="#1A1A1A"/>
<path d="M11.6041 3.73474C12.3556 3.73474 12.9649 3.12255 12.9649 2.36737C12.9649 1.61219 12.3556 1 11.6041 1C10.8525 1 10.2433 1.61219 10.2433 2.36737C10.2433 3.12255 10.8525 3.73474 11.6041 3.73474Z" fill="#1A1A1A"/>
</svg>
