<svg width="24" height="24" viewBox="0 0 24 24" fill="none" xmlns="http://www.w3.org/2000/svg">
<path d="M12.195 5.92777C13.5749 5.92777 14.6925 4.82351 14.6925 3.46316C14.6925 2.10222 13.5749 1 12.195 1C10.8153 1 9.69751 2.10222 9.69751 3.46316C9.6978 4.82351 10.8153 5.92777 12.195 5.92777ZM12.195 1.9855C13.0206 1.9855 13.6923 2.6484 13.6923 3.46316C13.6923 4.27879 13.0206 4.9414 12.195 4.9414C11.3679 4.9414 10.6964 4.2785 10.6964 3.46316C10.6964 2.6484 11.3682 1.9855 12.195 1.9855Z" fill="#1A1A1A"/>
<path d="M19.3577 15.4302C19.3536 15.386 19.3536 15.3434 19.3442 15.2995L17.9683 8.87115C17.8047 8.10546 17.1183 7.57729 16.3547 7.56887V7.56683H8.03257C7.26373 7.56887 6.56904 8.10023 6.40398 8.87115L5.02813 15.2995C5.01872 15.3434 5.02019 15.386 5.0146 15.4302C5.0093 15.4726 5.00371 15.5141 5.00106 15.5556C4.99841 15.6247 5.00106 15.6903 5.00518 15.7583C5.00783 15.7955 5.01077 15.8344 5.01607 15.8715C5.02548 15.9372 5.04049 15.9984 5.05667 16.0585C5.06903 16.1024 5.08109 16.1465 5.09728 16.1906C5.11493 16.2412 5.13788 16.2905 5.16083 16.3387C5.18525 16.3892 5.21085 16.4386 5.23939 16.4854C5.26381 16.5254 5.29059 16.5652 5.31913 16.6012C5.35562 16.652 5.39063 16.6973 5.43271 16.7426C5.46654 16.7786 5.50421 16.8106 5.54216 16.8466C5.57041 16.8733 5.59336 16.9038 5.62455 16.9264C5.6422 16.9398 5.65956 16.9476 5.67722 16.961C5.70693 16.9822 5.73812 17.001 5.77049 17.0222C5.8258 17.0556 5.88112 17.0879 5.94085 17.1157C5.97586 17.1332 6.01235 17.1477 6.05031 17.1622C6.11121 17.1863 6.17183 17.2049 6.23273 17.2209C6.26098 17.2275 6.28687 17.2409 6.31365 17.2464C6.32718 17.249 6.34072 17.2476 6.35278 17.2505C6.42987 17.2638 6.50667 17.2702 6.58523 17.2731C6.60818 17.2757 6.6326 17.2824 6.65673 17.2824C6.77442 17.2824 6.89064 17.2676 7.00275 17.2409C7.04865 17.233 7.0919 17.2142 7.13662 17.2008C7.19459 17.1831 7.25549 17.1689 7.31081 17.1422C7.38113 17.1125 7.44586 17.0742 7.51236 17.0353C7.53943 17.0208 7.5665 17.0048 7.5921 16.9859C7.66095 16.9407 7.72451 16.8901 7.78541 16.8329C7.79483 16.8236 7.80689 16.8167 7.81631 16.8074L7.81366 16.8048C7.86368 16.7566 7.91782 16.7142 7.96225 16.6593L8.88938 15.5031L9.10417 16.6663C8.44744 17.265 8.03228 18.1213 8.03228 19.0679V20.7073L8.29032 23H9.29455L9.03238 20.6538V19.0681C9.03238 18.4293 9.29866 17.8306 9.78239 17.3878L10.1837 17.0196L10.0863 16.4874L9.71471 14.4749L10.4703 13.5347C10.4703 13.5347 10.4703 13.5347 10.4715 13.5347C11.2256 13.5347 11.8744 13.0826 12.1539 12.4386C12.4337 13.0829 13.0825 13.5347 13.8364 13.5347C13.8567 13.5347 13.877 13.5306 13.8973 13.5292L14.6688 14.4909L14.3027 16.4871L14.2039 17.0193L14.6052 17.3875C15.0904 17.8303 15.3567 18.4291 15.3567 19.0679V20.6564L15.0922 22.9997H16.0976L16.3556 20.711V20.707V19.0676C16.3556 18.1207 15.9407 17.2644 15.2852 16.666L15.4961 15.519L16.4095 16.6593C16.4527 16.7139 16.5068 16.7566 16.5583 16.8048L16.5554 16.8074C16.5648 16.8167 16.5757 16.8236 16.5863 16.8329C16.6472 16.8901 16.7107 16.9407 16.7796 16.9859C16.8052 17.0045 16.8323 17.0208 16.8593 17.0353C16.9258 17.0742 16.9906 17.1128 17.0609 17.1422C17.1162 17.1689 17.1783 17.1834 17.2368 17.2008C17.2798 17.2142 17.3233 17.2328 17.3692 17.2409C17.4828 17.2676 17.5973 17.2824 17.7153 17.2824C17.7394 17.2824 17.7638 17.2757 17.7882 17.2731C17.8639 17.2702 17.9433 17.2638 18.0192 17.2505C18.0327 17.2476 18.0448 17.249 18.0572 17.2464C18.0881 17.2409 18.1113 17.2278 18.1393 17.2209C18.2002 17.2049 18.2623 17.1863 18.3217 17.1622C18.3596 17.1477 18.3976 17.1329 18.4311 17.1157C18.4894 17.0876 18.5462 17.0556 18.6015 17.0222C18.6339 17.001 18.6665 16.9822 18.696 16.961C18.7124 16.9476 18.7313 16.9398 18.7474 16.9264C18.7783 16.9038 18.8028 16.873 18.8313 16.8466C18.8704 16.8106 18.9054 16.7786 18.9393 16.7426C18.9814 16.6973 19.0178 16.652 19.0543 16.6012C19.0814 16.5638 19.1096 16.5251 19.1326 16.4854C19.1626 16.4386 19.1879 16.3892 19.2112 16.3387C19.2341 16.2905 19.2571 16.2412 19.2762 16.1906C19.2912 16.1465 19.3047 16.1024 19.3153 16.0585C19.333 15.9984 19.3462 15.9372 19.3559 15.8715C19.3603 15.8344 19.3642 15.7955 19.3668 15.7583C19.3724 15.6903 19.3748 15.6247 19.3709 15.5556C19.3712 15.5141 19.3645 15.4726 19.3577 15.4302ZM11.3139 10.8964L7.20812 16.0115L7.20547 16.006C7.12044 16.1273 6.99745 16.2171 6.85563 16.2624C6.84092 16.265 6.82709 16.2728 6.8112 16.2769C6.79502 16.2798 6.77589 16.2798 6.75706 16.2847C6.72469 16.2891 6.69086 16.294 6.65584 16.294C6.64348 16.294 6.62877 16.2928 6.61524 16.2914C6.59346 16.2914 6.57199 16.2888 6.55021 16.2859C6.53668 16.2844 6.52049 16.278 6.50578 16.2766C6.42722 16.258 6.35425 16.2261 6.29099 16.1834C6.2854 16.1793 6.2801 16.177 6.27628 16.1726C6.23303 16.1422 6.20184 16.1006 6.168 16.062C6.1424 16.0353 6.11386 16.0086 6.09503 15.9766C6.07473 15.9421 6.06414 15.9032 6.04913 15.8672C6.03295 15.8219 6.01264 15.7766 6.00588 15.7298C6.00176 15.7017 6.00735 15.6738 6.00588 15.6459C6.0047 15.499 6.03971 15.3509 6.13711 15.231L10.2711 10.0791C10.3968 9.92227 10.5889 9.8337 10.7969 9.8337C10.9022 9.8337 11.0591 9.85635 11.2065 9.9725C11.4884 10.194 11.5381 10.6168 11.3139 10.8964ZM12.5464 9.20042C12.399 9.31657 12.2828 9.45507 12.1869 9.60403C12.0895 9.45536 11.9733 9.31657 11.8259 9.20042C11.5219 8.96319 11.1582 8.84705 10.796 8.84705C10.3026 8.84705 9.81475 9.06047 9.48786 9.46727L6.50137 13.1909L7.38113 9.07527C7.44616 8.77301 7.71891 8.55465 8.03257 8.55378H9.0315H9.53023H14.6926H15.3576H16.3403C16.6537 8.55436 16.9267 8.77301 16.9917 9.07527L17.8715 13.1909L14.8856 9.46727C14.5572 9.06047 14.0694 8.84705 13.5774 8.84705C13.2141 8.84705 12.8504 8.96319 12.5464 9.20042ZM18.3682 15.7301C18.3602 15.7769 18.3411 15.8219 18.3237 15.8675C18.3102 15.9035 18.2981 15.9424 18.2778 15.9769C18.259 16.0089 18.2308 16.0356 18.2063 16.0623C18.1713 16.1009 18.1398 16.1422 18.0969 16.1729C18.0928 16.1773 18.0889 16.1796 18.0834 16.1837C18.0198 16.2264 17.9454 16.2583 17.8671 16.2769C17.8524 16.2783 17.8362 16.2847 17.8227 16.2862C17.8012 16.2891 17.7806 16.2917 17.7591 16.2917C17.7441 16.2931 17.7306 16.2943 17.717 16.2943C17.6835 16.2943 17.6497 16.2891 17.6143 16.285C17.5979 16.2798 17.5793 16.2798 17.5614 16.2772C17.5452 16.2731 17.5331 16.2653 17.517 16.2627C17.3763 16.2174 17.2521 16.1276 17.1683 16.0063L17.1642 16.0118L13.0584 10.8964C12.8339 10.6171 12.8827 10.1943 13.1664 9.97279C13.3153 9.85664 13.4718 9.83399 13.5771 9.83399C13.784 9.83399 13.9758 9.92285 14.1015 10.0794L18.2355 15.2313C18.3329 15.3512 18.3694 15.4993 18.3679 15.6462C18.367 15.6741 18.3723 15.702 18.3682 15.7301Z" fill="#1A1A1A"/>
<path fill-rule="evenodd" clip-rule="evenodd" d="M11.7096 21.777L11.6152 23H12.6168L12.9654 18.52H11.4248L11.7096 21.777Z" fill="#1A1A1A"/>
</svg>
