<svg width="24" height="24" viewBox="0 0 24 24" fill="none" xmlns="http://www.w3.org/2000/svg">
<path fill-rule="evenodd" clip-rule="evenodd" d="M12 2C6.47752 2 2 6.47728 2 12C2 17.5235 6.47747 22 12 22C17.5233 22 22 17.5235 22 12C22 6.47723 17.5233 2 12 2ZM1 12C1 5.92497 5.92525 1 12 1C18.0756 1 23 5.92497 23 12C23 18.0758 18.0756 23 12 23C5.92525 23 1 18.0758 1 12Z" fill="#1A1A1A"/>
<path d="M12.9166 6.5H9.25V17.5H11.0834V13.8331H12.9166C14.9414 13.8331 16.5834 12.1917 16.5834 10.1666C16.5834 8.14175 14.9414 6.5 12.9166 6.5ZM12.9166 12H11.0834V8.33343H12.9166C13.9291 8.33343 14.75 9.1543 14.75 10.1669C14.75 11.1794 13.9291 12 12.9166 12Z" fill="#1A1A1A"/>
</svg>
