<svg width="24" height="24" viewBox="0 0 24 24" fill="none" xmlns="http://www.w3.org/2000/svg">
<path fill-rule="evenodd" clip-rule="evenodd" d="M12.9255 9.28888H10.9159V12.0239H8.90625V14.212H10.9159V16.4H12.9255V14.212H15.4375V12.0239H12.9255V9.28888Z" fill="#1A1A1A"/>
<path fill-rule="evenodd" clip-rule="evenodd" d="M21.9524 19.4771C21.9524 20.0339 21.7444 20.2913 21.1777 20.2913H3.08214C2.5159 20.2913 2.04762 20.0339 2.04762 19.4771V6.66057C2.04762 6.10324 2.5159 5.62467 3.08214 5.62467H21.1777C21.7444 5.62467 21.9524 6.10324 21.9524 6.66057V19.4771ZM8.85714 4.53825H15.6667V2.90862H8.85714V4.53825ZM21.1777 4.53825H16.7143V2.4545C16.7143 1.99603 16.1507 1.8222 15.7091 1.8222H8.55071C8.10914 1.8222 7.80952 1.99603 7.80952 2.4545V4.53825H3.08214C1.93814 4.53825 1 5.50408 1 6.66057V19.4771C1 20.6336 1.93814 21.3778 3.08214 21.3778H21.1777C22.3217 21.3778 23 20.6336 23 19.4771V6.66057C23 5.50408 22.3217 4.53825 21.1777 4.53825Z" fill="#1A1A1A"/>
</svg>
