<svg width="24" height="24" viewBox="0 0 24 24" fill="none" xmlns="http://www.w3.org/2000/svg">
<path d="M18.7529 19.2252C18.213 18.6097 17.4755 17.7736 16.0646 17.7736C14.6538 17.7736 13.9162 18.6154 13.3791 19.2252C12.8419 19.8349 12.5952 20.0962 12 20.0962C11.4048 20.0962 11.129 19.8058 10.6239 19.2252C10.1188 18.6446 9.34645 17.7736 7.9356 17.7736C6.52469 17.7736 5.78718 18.6154 5.24729 19.2252C4.70719 19.8349 4.4516 20.0962 3.87101 20.0962H3V21.8382H3.87101C5.28192 21.8382 6.01943 20.9964 6.55933 20.3866C7.09942 19.7768 7.3548 19.5156 7.9356 19.5156C8.51619 19.5156 8.80661 19.806 9.31166 20.3866C9.81673 20.9672 10.5891 21.8382 12 21.8382C13.4108 21.8382 14.1484 20.9964 14.6855 20.3866C15.2225 19.7768 15.4838 19.5156 16.0644 19.5156C16.645 19.5156 16.9354 19.806 17.4405 20.3866C17.9455 20.9672 18.7179 21.8382 20.1288 21.8382H20.9998L21 20.0962H20.129C19.5484 20.0962 19.258 19.8058 18.7529 19.2252H18.7529Z" fill="#1A1A1A"/>
<path d="M18.7529 13.4517C18.213 12.8363 17.4755 12.0001 16.0646 12.0001C14.6538 12.0001 13.9162 12.8419 13.3791 13.4517C12.8419 14.0615 12.5952 14.3227 12 14.3227C11.4048 14.3227 11.129 14.0323 10.6239 13.4517C10.1188 12.8711 9.34645 12.0001 7.9356 12.0001C6.52469 12.0001 5.78718 12.8419 5.24729 13.4517C4.70719 14.0615 4.4516 14.3227 3.87101 14.3227H3V16.0648H3.87101C5.28192 16.0648 6.01943 15.2229 6.55933 14.6132C7.09942 14.0034 7.3548 13.7421 7.9356 13.7421C8.51619 13.7421 8.80661 14.0326 9.31166 14.6132C9.81673 15.1937 10.5891 16.0648 12 16.0648C13.4108 16.0648 14.1484 15.2229 14.6855 14.6132C15.2225 14.0034 15.4838 13.7421 16.0644 13.7421C16.645 13.7421 16.9354 14.0326 17.4405 14.6132C17.9455 15.1937 18.7179 16.0648 20.1288 16.0648H20.9998L21 14.3227H20.129C19.5484 14.3227 19.258 14.0323 18.7529 13.4517H18.7529Z" fill="#1A1A1A"/>
<path d="M5.58962 2L6.31132 3.99642H8.26415L6.69339 5.22826L7.41509 7.22468L5.63207 5.86542L3.89151 7.35211L4.57075 5.31321L3 3.95395H4.99528L5.58962 2Z" fill="#1A1A1A"/>
<path d="M11.9857 2L12.7074 3.99642H14.6603L13.0895 5.22826L13.8112 7.22468L12.0282 5.86542L10.2876 7.35211L10.9669 5.31321L9.39612 3.95395H11.3914L11.9857 2Z" fill="#1A1A1A"/>
<path d="M18.3255 2L19.0472 3.99642H21L19.4292 5.22826L20.1509 7.22468L18.3679 5.86542L16.6273 7.35211L17.3066 5.31321L15.7358 3.95395H17.7311L18.3255 2Z" fill="#1A1A1A"/>
</svg>
