<svg width="24" height="24" viewBox="0 0 24 24" fill="none" xmlns="http://www.w3.org/2000/svg">
<path fill-rule="evenodd" clip-rule="evenodd" d="M24 3.96327L23.2336 3.96326L20.8946 10.665C20.6158 11.4775 20.7561 12.3243 21.2766 13.0323C21.6772 13.5836 22.2699 13.9481 22.9313 14.0664V19.1221H24V3.96327ZM21.9179 10.9931L22.9982 7.81683V13.016C22.6518 12.9129 22.341 12.7069 22.1395 12.4272C21.8224 11.9958 21.7306 11.4783 21.9179 10.9931ZM12.2846 4.4837C8.34925 4.4837 5.15535 7.58256 5.15535 11.4127C5.15535 15.2428 8.34925 18.3416 12.2846 18.3416C16.2199 18.3416 19.4138 15.2428 19.4138 11.4127C19.4138 7.58256 16.2199 4.4837 12.2846 4.4837ZM6.15713 11.4127C6.15713 8.12061 8.88819 5.49512 12.2511 5.49512C15.6136 5.49512 18.345 8.15279 18.345 11.4127C18.345 14.6739 15.6457 17.3627 12.2846 17.3627C8.92167 17.3627 6.15713 14.7047 6.15713 11.4127ZM12.2846 6.92297C9.72182 6.92297 7.63264 8.94858 7.63264 11.4452C7.63264 13.9419 9.72182 15.9675 12.2846 15.9675C14.8474 15.9675 16.9366 13.9419 16.9366 11.4452C16.9366 8.94858 14.8474 6.92297 12.2846 6.92297ZM8.66789 11.4127C8.66789 9.48629 10.2946 7.90187 12.2846 7.90187C14.2746 7.90187 15.9013 9.48629 15.9013 11.4127C15.9013 13.3711 14.2752 14.9236 12.2846 14.9236C10.2946 14.9236 8.66789 13.3392 8.66789 11.4127ZM1.06873 4.15853H0V8.16044C0 9.19056 0.73219 10.056 1.70729 10.2891V19.1221H2.77603V10.2891C3.75113 10.056 4.48332 9.19056 4.48332 8.16044V4.15856H3.48154V8.19296C3.48154 8.64865 3.20794 9.0369 2.8095 9.24292V4.15853H1.74077V9.21813C1.34645 9.03272 1.06873 8.62077 1.06873 8.16044V4.15853Z" fill="#1A1A1A"/>
</svg>
