<svg width="24" height="24" viewBox="0 0 24 24" fill="none" xmlns="http://www.w3.org/2000/svg">
<path d="M16.137 12C16.137 13.1489 17.0519 14.0778 18.1833 14.0778C19.3148 14.0778 20.2296 13.1489 20.2296 12C20.2296 10.8511 19.3148 9.92222 18.1833 9.92222C17.0519 9.92222 16.137 10.8511 16.137 12ZM19.0741 12C19.0741 12.4889 18.6889 12.88 18.2074 12.88C17.7259 12.88 17.3407 12.4889 17.3407 12C17.3407 11.5111 17.7259 11.12 18.2074 11.12C18.6889 11.12 19.0741 11.5111 19.0741 12ZM11.7556 9.45778C11.8759 9.75111 11.7315 10.1178 11.4426 10.24C10.5759 10.6067 9.80556 11.12 9.13148 11.8044C8.45741 12.4889 7.95185 13.2711 7.59074 14.1511C7.22963 15.0311 7.06111 15.96 7.06111 16.9133C7.06111 17.2311 6.7963 17.5 6.48333 17.5C6.17037 17.5 5.90556 17.2311 5.90556 16.9133C5.90556 15.7889 6.12222 14.7133 6.53148 13.6867C6.94074 12.66 7.54259 11.7556 8.33704 10.9733C9.10741 10.1911 10.0222 9.58 11.0093 9.14C11.2981 8.99333 11.6352 9.14 11.7556 9.45778ZM2.31852 16.2044C1.78889 14.8844 1.5 13.4667 1.5 12C1.5 10.5333 1.76481 9.11556 2.31852 7.79556C2.87222 6.45111 3.66667 5.25333 4.67778 4.22667C5.68889 3.2 6.86852 2.39333 8.19259 1.83111C9.51667 1.26889 10.913 1 12.3333 1H16.7148C19.8685 1 22.4204 3.59111 22.4204 6.79333C22.4204 6.94 22.3481 7.11111 22.2519 7.20889C21.7704 7.69778 21.2648 7.94222 20.7352 7.94222C20.2056 7.94222 19.7 7.69778 19.2185 7.20889C18.713 6.69556 18.3519 6.69556 17.8463 7.20889C16.8833 8.18667 15.7759 8.18667 14.813 7.20889C14.5722 6.96444 14.3315 6.81778 14.1389 6.81778C13.9463 6.81778 13.7056 6.94 13.4648 7.20889C12.5019 8.18667 11.3944 8.18667 10.4315 7.20889C10.3111 7.08667 10.263 6.94 10.263 6.79333C10.263 5.96222 9.95 5.18 9.37222 4.59333C9.15556 4.37333 9.15556 3.98222 9.37222 3.76222C9.61296 3.51778 9.97407 3.51778 10.1907 3.76222C10.937 4.52 11.3704 5.49778 11.4185 6.54889C11.8519 6.91556 12.1648 6.84222 12.6222 6.40222C13.5852 5.42444 14.6926 5.42444 15.6556 6.40222C16.1611 6.91556 16.5222 6.91556 17.0278 6.40222C17.5093 5.91333 18.0148 5.66889 18.5444 5.66889C19.0741 5.66889 19.5796 5.91333 20.0611 6.40222C20.4944 6.84222 20.8315 6.91556 21.2407 6.57333C21.1204 4.15333 19.1222 2.22222 16.7148 2.22222H12.3333C11.0574 2.22222 9.80556 2.46667 8.62593 2.95556C7.4463 3.44444 6.38704 4.17778 5.4963 5.08222C4.58148 6.01111 3.88333 7.06222 3.40185 8.26C2.92037 9.45778 2.67963 10.7044 2.67963 12.0244C2.67963 13.32 2.92037 14.5911 3.40185 15.7889C3.88333 16.9867 4.60556 18.0622 5.4963 18.9667C6.41111 19.8956 7.4463 20.6044 8.62593 21.0933C9.80556 21.5822 11.0333 21.8267 12.3333 21.8267H13.5611L15.8963 19.4556L14.1148 17.6467C13.9463 17.4756 13.8981 17.1822 13.9944 16.9622L15.0296 14.86H12.3093C11.9963 14.86 11.7315 14.5911 11.7315 14.2733C11.7315 13.9556 11.9963 13.6867 12.3093 13.6867H15.9685C16.1611 13.6867 16.3537 13.7844 16.4741 13.98C16.5704 14.1511 16.5944 14.3711 16.4981 14.5667L15.2222 17.1578L17.1241 19.0889C17.3648 19.3089 17.3648 19.7 17.1241 19.92L15.1981 21.8756H17.8222L18.9296 19.6267L17.0278 17.6956C16.787 17.4756 16.787 17.0844 17.0278 16.8644L18.4963 15.3733C18.6648 15.2022 18.9537 15.1533 19.1704 15.2511L22.1074 16.7422C22.3963 16.8889 22.5167 17.2556 22.3722 17.5489C22.2278 17.8422 21.8667 17.9644 21.5778 17.8178L19.0259 16.5222L18.2796 17.28L20.0611 19.0889C20.2296 19.26 20.2778 19.5533 20.1815 19.7733L19.1463 21.8756H21.8426C22.1556 21.8756 22.4204 22.1444 22.4204 22.4622C22.4204 22.78 22.1796 23 21.8426 23H18.1833H12.3333C10.8889 23 9.49259 22.7067 8.19259 22.1689C6.86852 21.6067 5.68889 20.8 4.67778 19.7733C3.66667 18.7467 2.87222 17.5489 2.31852 16.2044Z" fill="#1A1A1A"/>
</svg>
