<svg width="24" height="24" viewBox="0 0 24 24" fill="none" xmlns="http://www.w3.org/2000/svg">
<path fill-rule="evenodd" clip-rule="evenodd" d="M17.0339 7.5C17.5395 7.5 17.9492 8.10458 17.9492 8.85C17.9492 9.59542 17.5395 10.2 17.0339 10.2C16.5283 10.2 16.1187 9.59542 16.1187 8.85C16.1187 8.10458 16.5283 7.5 17.0339 7.5Z" fill="#1A1A1A"/>
<mask id="mask0_693_12309" style="mask-type:alpha" maskUnits="userSpaceOnUse" x="3" y="3" width="18" height="18">
<path d="M3 21H21V3H3V21Z" fill="white"/>
</mask>
<g mask="url(#mask0_693_12309)">
<path fill-rule="evenodd" clip-rule="evenodd" d="M6.96606 9.60009H8.1864V8.40009H6.96606V9.60009Z" fill="#1A1A1A"/>
<path fill-rule="evenodd" clip-rule="evenodd" d="M4.83057 9.60009H6.05091V8.40009H4.83057V9.60009Z" fill="#1A1A1A"/>
<path fill-rule="evenodd" clip-rule="evenodd" d="M8.79663 9.60009H10.017V8.40009H8.79663V9.60009Z" fill="#1A1A1A"/>
<path fill-rule="evenodd" clip-rule="evenodd" d="M10.6271 9.60009H11.8474V8.40009H10.6271V9.60009Z" fill="#1A1A1A"/>
<path fill-rule="evenodd" clip-rule="evenodd" d="M16.94 14.3162C15.2035 14.3162 13.7564 11.9667 13.7564 9.18559C13.7564 6.40449 15.2035 4.05493 16.94 4.05493C18.6764 4.05493 20.1236 6.40449 20.1236 9.18559C20.1236 11.9667 18.6283 14.3162 16.94 14.3162ZM13.7564 14.3162V13.2613C13.9975 13.645 14.2872 14.0287 14.5765 14.3162H13.7564ZM12.7433 19.1594L12.647 19.0632C12.5503 18.9675 12.4059 18.9197 12.2611 18.9197C12.1162 18.9197 11.9718 18.9675 11.8751 19.0632L11.2962 19.6866L10.7176 19.0632C10.6209 18.9675 10.4765 18.9197 10.3317 18.9197C10.1868 18.9197 10.0424 18.9675 9.9457 19.0632L9.36674 19.6866L8.78823 19.0632C8.69152 18.9675 8.54711 18.9197 8.40226 18.9197C8.25741 18.9197 8.113 18.9675 8.01629 19.0632L7.43733 19.6866L6.85882 19.0632C6.76211 18.9675 6.6177 18.9197 6.47285 18.9197C6.328 18.9197 6.18315 18.9675 6.08688 19.0632L5.50793 19.6866L4.92941 19.0632C4.73642 18.8718 4.35045 18.8718 4.15747 19.0632L4.0612 19.1594V9.66499V8.65791C4.15747 7.45942 4.4953 6.30835 5.02568 5.44526C5.60464 4.53433 6.37614 4.00664 7.19621 4.00664H14.5765C13.5634 5.01372 12.84 6.69204 12.7433 8.61005V8.99374V9.13774V19.1594ZM17.0362 3C17.0362 3 16.9881 3 17.0362 3H7.19621C6.03874 3 4.92941 3.67124 4.15747 4.86973C3.38553 6.0208 3 7.55512 3 9.13774V9.28129V20.454C3 20.598 3.04814 20.7415 3.14441 20.8377C3.24112 20.9334 3.38553 20.9817 3.48224 20.9817C3.62665 20.9817 3.7715 20.9334 3.86821 20.8377L4.44673 20.2143L5.02568 20.8377C5.12196 20.9334 5.2668 20.9817 5.41165 20.9817C5.5565 20.9817 5.70091 20.9334 5.79762 20.8377L6.37614 20.2143L6.95509 20.8377C7.0518 20.9334 7.19621 20.9817 7.34106 20.9817C7.48591 20.9817 7.63032 20.9334 7.72703 20.8377L8.30555 20.2143L8.8845 20.8377C8.98121 20.9334 9.12562 20.9817 9.27047 20.9817C9.41532 20.9817 9.55973 20.9334 9.65644 20.8377L10.235 20.2143L10.8139 20.8377C10.9106 20.9334 11.055 20.9817 11.1999 20.9817C11.3447 20.9817 11.4891 20.9334 11.5858 20.8377L12.1648 20.2143L12.7433 20.8377C12.9363 21.0295 13.2741 21.0774 13.4671 20.8377C13.5634 20.7415 13.6115 20.598 13.6115 20.454V15.3233H16.7951C19.1586 15.3233 20.9918 12.5901 20.9918 9.13774C21.1366 5.73281 19.3516 3.09571 17.0362 3Z" fill="#1A1A1A"/>
</g>
</svg>
